<svg xmlns="http://www.w3.org/2000/svg" version="1.1" xmlns:xlink="http://www.w3.org/1999/xlink" xmlns:svgjs="http://svgjs.dev/svgjs" width="1500" height="556" viewBox="0 0 1500 556"><g transform="matrix(1,0,0,1,-0.9090909090911055,-1.186325874257534)"><svg viewBox="0 0 396 147" data-background-color="#040c1c" preserveAspectRatio="xMidYMid meet" height="556" width="1500" xmlns="http://www.w3.org/2000/svg" xmlns:xlink="http://www.w3.org/1999/xlink"><g id="tight-bounds" transform="matrix(1,0,0,1,0.24000000000003752,0.3136509056040637)"><svg viewBox="0 0 395.5199999999999 146.37269818879187" height="146.37269818879187" width="395.5199999999999"><g><svg viewBox="0 0 634.8792435423871 234.95395403862847" height="146.37269818879187" width="395.5199999999999"><g transform="matrix(1,0,0,1,239.35924354238716,32.47192852487558)"><svg viewBox="0 0 395.52 170.0100969888773" height="170.0100969888773" width="395.52"><g id="textblocktransform"><svg viewBox="0 0 395.52 170.0100969888773" height="170.0100969888773" width="395.52" id="textblock"><g><svg viewBox="0 0 395.52 122.6704292845258" height="122.6704292845258" width="395.52"><g transform="matrix(1,0,0,1,0,0)"><svg width="395.52" viewBox="4.49 -35.01 146.72 45.51" height="122.6704292845258" data-palette-color="#ffffff"><path d="M4.49-35.01L9.5-35.01 9.5-5 27.49-5 27.49 0 4.49 0 4.49-35.01ZM55-21.19L55-10.55 37.79-10.55 37.79-4.81 55-4.81 55 0 37.79 0Q36.81 0 35.94-0.38 35.06-0.76 34.41-1.4 33.76-2.05 33.38-2.93 33.01-3.81 33.01-4.81L33.01-4.81 33.01-21.19Q33.01-22.19 33.38-23.07 33.76-23.95 34.41-24.6 35.06-25.24 35.94-25.62 36.81-26 37.79-26L37.79-26 50.19-26Q51.19-26 52.07-25.62 52.95-25.24 53.6-24.6 54.25-23.95 54.62-23.07 55-22.19 55-21.19L55-21.19ZM50.19-21.19L37.79-21.19 37.79-15.36 50.19-15.36 50.19-21.19ZM63.01-5.81L63.01-21.19Q63.01-22.19 63.39-23.07 63.76-23.95 64.41-24.6 65.06-25.24 65.94-25.62 66.82-26 67.79-26L67.79-26 76.41-26Q77.36-26 78.22-25.65 79.07-25.29 79.72-24.67 80.37-24.05 80.77-23.21 81.17-22.36 81.2-21.41L81.2-21.41 81.2-26 86.01-26 86.01 5.69Q86.01 6.69 85.63 7.57 85.25 8.45 84.6 9.09 83.95 9.74 83.08 10.12 82.2 10.5 81.2 10.5L81.2 10.5 66.01 10.5 66.01 5.69 81.2 5.69 81.2-1 67.79-1Q66.82-1 65.94-1.38 65.06-1.76 64.41-2.4 63.76-3.05 63.39-3.93 63.01-4.81 63.01-5.81L63.01-5.81ZM67.79-5.81L81.2-5.81 81.2-21.19 67.79-21.19 67.79-5.81ZM94.01-4.81L94.01-11.35Q94.01-12.35 94.39-13.22 94.77-14.09 95.41-14.75 96.06-15.41 96.94-15.78 97.82-16.16 98.8-16.16L98.8-16.16 111.2-16.16 111.2-21.19 95.5-21.19 95.5-26 111.2-26Q112.2-26 113.08-25.62 113.96-25.24 114.6-24.6 115.25-23.95 115.63-23.07 116.01-22.19 116.01-21.19L116.01-21.19 116.01 0 111.2 0 111.2-4.39Q111.13-3.49 110.71-2.69 110.3-1.88 109.65-1.28 109-0.68 108.17-0.34 107.34 0 106.41 0L106.41 0 98.8 0Q97.82 0 96.94-0.38 96.06-0.76 95.41-1.4 94.77-2.05 94.39-2.93 94.01-3.81 94.01-4.81L94.01-4.81ZM98.8-11.35L98.8-4.81 111.2-4.81 111.2-11.35 98.8-11.35ZM123.72-30L123.72-35.01 151.21-35.01 151.21-33.5 131.36-5 151.21-5 151.21 0 123.01 0 123.01-1.49 142.86-30 123.72-30Z" opacity="1" transform="matrix(1,0,0,1,0,0)" fill="#ffffff" class="wordmark-text-0" data-fill-palette-color="primary" id="text-0"></path></svg></g></svg></g><g transform="matrix(1,0,0,1,0,151.62997354829952)"><svg viewBox="0 0 112.72319999999999 18.3801234405778" height="18.3801234405778" width="112.72319999999999"><g transform="matrix(1,0,0,1,0,0)"><svg width="112.72319999999999" viewBox="1.05 -36.75 228.42999999999998 37.25" height="18.3801234405778" data-palette-color="#ffffff"><path d="M22.5 0L22.2 0 13.35-17.15 11.05-22.35 10-17.15 6.6 0 1.05 0 8.65-36.75 9.25-36.75 19.35-16.9 22.35-10.25 25.35-16.9 35.25-36.75 35.8-36.75 43.7 0 38.2 0 34.5-17.15 33.4-22.35 31.4-17.15 22.5 0ZM64.85 0L48.65 0 48.65-36.75 54.3-36.75 54.3-5 64.85-5 64.85 0ZM80.75 0L70.25 0 70.25-36.75 79.59-36.75Q84.09-36.75 86.72-35.85 89.34-34.95 90.62-33.55 91.89-32.15 92.3-30.6 92.69-29.05 92.69-27.7L92.69-27.7Q92.69-26.25 92.27-24.68 91.84-23.1 90.84-21.78 89.84-20.45 88.09-19.65L88.09-19.65Q91.84-18.7 93.42-16.38 95-14.05 95-11.2L95-11.2Q95-9.25 94.55-7.25 94.09-5.25 92.67-3.63 91.25-2 88.39-1 85.55 0 80.75 0L80.75 0ZM75.75-32L75.75-21.15 80.5-21.15Q83.09-21.15 84.5-22.03 85.89-22.9 86.47-24.3 87.05-25.7 87.05-27.25L87.05-27.25Q87.05-28.55 86.47-29.63 85.89-30.7 84.42-31.35 82.94-32 80.25-32L80.25-32 75.75-32ZM75.75-16.7L75.75-4.7 81.5-4.7Q84.05-4.7 85.57-5.3 87.09-5.9 87.89-6.85 88.69-7.8 88.94-8.93 89.19-10.05 89.19-11.15L89.19-11.15Q89.19-13.75 87.44-15.23 85.69-16.7 81.94-16.7L81.94-16.7 75.75-16.7ZM112.04 0L101.54 0 101.54-36.75 110.89-36.75Q115.39-36.75 118.02-35.85 120.64-34.95 121.92-33.55 123.19-32.15 123.59-30.6 123.99-29.05 123.99-27.7L123.99-27.7Q123.99-26.25 123.57-24.68 123.14-23.1 122.14-21.78 121.14-20.45 119.39-19.65L119.39-19.65Q123.14-18.7 124.72-16.38 126.29-14.05 126.29-11.2L126.29-11.2Q126.29-9.25 125.84-7.25 125.39-5.25 123.97-3.63 122.54-2 119.69-1 116.84 0 112.04 0L112.04 0ZM107.04-32L107.04-21.15 111.79-21.15Q114.39-21.15 115.79-22.03 117.19-22.9 117.77-24.3 118.34-25.7 118.34-27.25L118.34-27.25Q118.34-28.55 117.77-29.63 117.19-30.7 115.72-31.35 114.24-32 111.54-32L111.54-32 107.04-32ZM107.04-16.7L107.04-4.7 112.79-4.7Q115.34-4.7 116.87-5.3 118.39-5.9 119.19-6.85 119.99-7.8 120.24-8.93 120.49-10.05 120.49-11.15L120.49-11.15Q120.49-13.75 118.74-15.23 116.99-16.7 113.24-16.7L113.24-16.7 107.04-16.7ZM150.64 0L145.04 0 145.04-36.75 150.64-36.75 150.64-21.75 163.59-21.75 163.59-36.75 169.19-36.75 169.19 0 163.59 0 163.59-17.05 150.64-17.05 150.64 0ZM184.53 0.5L184.53 0.5Q181.09 0.5 179.28-0.95 177.48-2.4 176.86-4.8 176.23-7.2 176.23-10.1L176.23-10.1 176.23-22.95 181.63-22.95 181.63-11.45Q181.63-8.8 181.96-7.15 182.28-5.5 183.26-4.73 184.23-3.95 186.19-3.95L186.19-3.95Q187.59-3.95 188.86-4.73 190.13-5.5 190.98-6.88 191.84-8.25 191.84-9.95L191.84-9.95 191.84-22.95 197.19-22.95 197.19 0 192.78 0 192.19-3.35Q190.94-1.45 189.09-0.48 187.23 0.5 184.53 0.5ZM217.98 0.5L217.98 0.5Q215.98 0.5 214.33-0.18 212.68-0.85 211.56-1.9 210.43-2.95 209.88-4.05L209.88-4.05 209.78 0 204.58 0 204.58-36.75 209.88-36.75 209.88-22.6 209.63-18.7Q210.18-20 211.48-21.1 212.78-22.2 214.56-22.88 216.33-23.55 218.33-23.55L218.33-23.55Q221.78-23.55 224.28-22.03 226.78-20.5 228.13-17.78 229.48-15.05 229.48-11.45L229.48-11.45Q229.48-7.7 227.88-5.03 226.28-2.35 223.68-0.93 221.08 0.5 217.98 0.5ZM217.08-4L217.08-4Q220.48-4 222.16-6.15 223.83-8.3 223.83-11.45L223.83-11.45Q223.83-14.7 222.16-16.82 220.48-18.95 217.08-18.95L217.08-18.95Q215.28-18.95 213.73-18.07 212.18-17.2 211.26-15.6 210.33-14 210.33-11.8L210.33-11.8 210.33-11.45Q210.38-9.25 211.28-7.55 212.18-5.85 213.71-4.93 215.23-4 217.08-4Z" opacity="1" transform="matrix(1,0,0,1,0,0)" fill="#ffffff" class="slogan-text-1" data-fill-palette-color="secondary" id="text-1"></path></svg></g></svg></g></svg></g></svg></g><g><svg viewBox="0 0 210.39969927861344 234.95395403862847" height="234.95395403862847" width="210.39969927861344"><g><svg xmlns="http://www.w3.org/2000/svg" xmlns:xlink="http://www.w3.org/1999/xlink" version="1.1" x="0" y="0" viewBox="10 6.473749999999999 69 77.05250000000001" enable-background="new 0 0 90 90" xml:space="preserve" height="234.95395403862847" width="210.39969927861344" class="icon-icon-0" data-fill-palette-color="accent" id="icon-0"><path d="M74.674 22.492L48.826 7.508C46.446 6.129 42.553 6.129 40.174 7.508L14.326 22.492C11.947 23.872 10 27.25 10 30V60C10 62.75 11.947 66.129 14.326 67.508L40.175 82.492C42.554 83.871 46.447 83.871 48.827 82.492L74.675 67.508C77.054 66.129 79 62.75 79 60V30C79 27.25 77.054 23.872 74.674 22.492M57.078 50.095L36.891 69.209C35.437 70.586 34.624 70.118 35.083 68.17L39.025 51.465C39.484 49.517 38.441 47.106 36.706 46.107L33.435 44.225C31.699 43.226 31.469 41.283 32.923 39.906L53.11 20.791C54.564 19.414 55.378 19.883 54.918 21.831L50.978 38.536C50.518 40.484 51.561 42.896 53.296 43.894L56.568 45.777C58.302 46.774 58.532 48.718 57.078 50.095" fill="#1cdddd" data-fill-palette-color="accent"></path></svg></g></svg></g></svg></g><defs></defs></svg><rect width="395.5199999999999" height="146.37269818879187" fill="none" stroke="none" visibility="hidden"></rect></g></svg></g></svg>